<svg width="200" height="200" viewBox="0 0 200 200" xmlns="http://www.w3.org/2000/svg">
  <defs>
    <linearGradient id="grad1" x1="0%" y1="0%" x2="0%" y2="100%">
      <stop offset="0%" style="stop-color:#21262d;stop-opacity:1" />
      <stop offset="100%" style="stop-color:#0d1117;stop-opacity:1" />
    </linearGradient>
    <filter id="shadow" x="-20%" y="-20%" width="140%" height="140%">
      <feDropShadow dx="0" dy="4" stdDeviation="4" flood-color="#000000" flood-opacity="0.5"/>
    </filter>
  </defs>
  
  <!-- Background Squircle -->
  <rect x="10" y="10" width="180" height="180" rx="40" fill="url(#grad1)" stroke="#30363d" stroke-width="2"/>
  
  <!-- Repo Icon Group -->
  <g filter="url(#shadow)" transform="translate(0, -5)">
    <!-- Main Book Shape -->
    <path d="M70 50 H130 C138.284 50 145 56.716 145 65 V145 C145 153.284 138.284 160 130 160 H70 C61.716 160 55 153.284 55 145 V65 C55 56.716 61.716 50 70 50 Z" 
          fill="none" 
          stroke="#ffffff" 
          stroke-width="10" 
          stroke-linejoin="round"/>
          
    <!-- Spine Divider -->
    <line x1="88" y1="50" x2="88" y2="160" stroke="#ffffff" stroke-width="8"/>
    
    <!-- Code Lines -->
    <line x1="108" y1="80" x2="128" y2="80" stroke="#ffffff" stroke-width="8" stroke-linecap="round"/>
    <line x1="108" y1="105" x2="122" y2="105" stroke="#ffffff" stroke-width="8" stroke-linecap="round"/>
    <line x1="108" y1="130" x2="128" y2="130" stroke="#ffffff" stroke-width="8" stroke-linecap="round"/>
    
  </g>
</svg>